<?xml version="1.0" encoding="utf-8" ?>
<svg xmlns="http://www.w3.org/2000/svg" xmlns:xlink="http://www.w3.org/1999/xlink" width="32" height="32" viewBox="0 0 32 32">
	<defs>
		<clipPath id="clipPath4869818046">
			<path d="M0 0L32 0L32 32L0 32L0 0Z" fill-rule="nonzero" transform="matrix(1 0 0 1 0 0)"/>
		</clipPath>
	</defs>
	<g clip-path="url(#clipPath4869818046)">
		<defs>
			<clipPath id="clipPath3940152069">
				<path d="M0 0L32 0L32 32L0 32L0 0Z" fill-rule="nonzero" transform="matrix(1 0 0 1 -0 -0)"/>
			</clipPath>
		</defs>
		<g clip-path="url(#clipPath3940152069)">
			<path d="M24.6475 0L24.6475 6.165L21.7653 9.04731L19.6279 6.90981L19.2149 7.32294L10.3699 16.1677L17.4645 23.2621L14.1661 26.5604L14.1662 29.7048L15.3341 29.7048L15.3341 27.0443L18.2904 24.088L19.6279 25.4255L28.8855 16.1678L25.1252 12.4075L29.3406 8.19188L29.3406 0L28.1727 0L28.1727 7.70813L24.2992 11.5816L22.591 9.87325L25.8154 6.64888L25.8154 0L24.6475 0ZM0 0.68175L0 1.84969L11.6629 1.84969L14.4288 4.61556C14.2688 4.89012 14.1768 5.20906 14.1768 5.54975C14.1768 6.57613 15.0088 7.40825 16.0351 7.40825C17.0613 7.40825 17.8933 6.57612 17.8933 5.54981C17.8933 4.52356 17.0613 3.69169 16.0351 3.69169C15.7761 3.69169 15.5296 3.74481 15.3056 3.84056L12.1468 0.681813L0 0.68175ZM0 4.14913L0 5.31725L8.19538 5.31744L10.9613 8.08331C10.8013 8.35781 10.7091 8.67681 10.7091 9.0175C10.7091 10.0437 11.5411 10.8757 12.5673 10.8757C13.5936 10.8757 14.4256 10.0437 14.4256 9.0175C14.4256 7.99125 13.5936 7.15919 12.5674 7.15919C12.3084 7.15919 12.0619 7.21231 11.8379 7.30806L8.67913 4.14931L0 4.14913ZM5.21163 7.61675L6.24657e-05 7.61687L6.24657e-05 8.785L4.72794 8.78481L7.49381 11.5511C7.33381 11.8254 7.24175 12.1446 7.24175 12.4852C7.24175 13.5114 8.07375 14.3435 9.1 14.3435C10.1262 14.3435 10.9581 13.5114 10.9581 12.4851C10.9581 11.4589 10.1262 10.6267 9.1 10.6267C8.84094 10.6267 8.59437 10.6799 8.37031 10.7757L5.21163 7.61675ZM19.6279 8.56175L27.2337 16.1678L19.6279 23.7734L12.0219 16.1678L19.6279 8.56175ZM19.5495 10.2735L13.6386 16.1844L19.5769 22.1228L20.4028 21.2969L15.2905 16.1844L20.3755 11.0993L19.5495 10.2735ZM0.000124931 11.6209L0.000124931 14.8213L10.0083 24.8294L10.0083 29.7048L11.1764 29.7048L11.1764 22.7969L0.000124931 11.6209ZM21.657 12.1457L20.8312 12.9716L24.0488 16.1892L20.8131 19.4248L21.6393 20.2507L25.7006 16.1892L21.657 12.1457ZM19.7864 14.2182C18.6958 14.2182 17.8119 15.1024 17.8119 16.1928C17.8119 17.2831 18.6958 18.1672 19.7863 18.1672C20.8769 18.1672 21.7608 17.2831 21.7608 16.1928C21.7608 15.1022 20.8769 14.2181 19.7864 14.2182ZM0 17.2472L0 20.4476L5.93038 26.3776L5.93038 29.7047L7.09838 29.7047L7.09838 24.3453L0 17.2472ZM26.7111 21.8193C25.6849 21.8193 24.8529 22.6513 24.8529 23.6776C24.8529 24.7038 25.6849 25.536 26.7111 25.536C26.9607 25.536 27.1987 25.4864 27.4161 25.3971L29.7049 27.6856L29.7049 26.0339L28.3047 24.6339C28.4727 24.3545 28.5696 24.0274 28.5696 23.6776C28.5696 22.6514 27.7374 21.8194 26.7111 21.8193ZM0 22.9247L0 26.1253L1.95587 28.0809L1.95575 29.7048L3.12375 29.7048L3.12412 26.0488L0 22.9247ZM23.2439 25.2869C22.2176 25.2869 21.3856 26.1189 21.3856 27.1453C21.3856 28.1715 22.2174 29.0034 23.2438 29.0034C23.4634 29.0034 23.6739 28.9651 23.8694 28.8953L24.6791 29.7046L26.331 29.7046L24.7948 28.1685C24.9888 27.8749 25.1021 27.5234 25.1021 27.1452C25.1021 26.1188 24.2701 25.2868 23.2439 25.2869Z" fill-rule="nonzero" transform="matrix(1 0 0 1 1.21 1.21219)" fill="rgb(0, 240, 255)"/>
		</g>
	</g>
</svg>
