<?xml version="1.0" encoding="utf-8" ?>
<svg xmlns="http://www.w3.org/2000/svg" xmlns:xlink="http://www.w3.org/1999/xlink" width="20" height="20" viewBox="0 0 20 20">
	<defs>
		<clipPath id="clipPath6127553408">
			<path d="M0 0L20 0L20 20L0 20L0 0Z" fill-rule="nonzero" transform="matrix(1 0 0 1 0 0)"/>
		</clipPath>
	</defs>
	<g clip-path="url(#clipPath6127553408)">
		<defs>
			<clipPath id="clipPath4663692490">
				<path d="M0 0L20 0L20 20L0 20L0 0Z" fill-rule="nonzero" transform="matrix(1 0 0 1 -0 -0)"/>
			</clipPath>
		</defs>
		<g clip-path="url(#clipPath4663692490)">
			<path d="M10.0098 11.25L10.5652 7.63047L7.09219 7.63047L7.09219 5.28164C7.09219 4.29141 7.57734 3.32617 9.13281 3.32617L10.7117 3.32617L10.7117 0.244531C10.7117 0.244531 9.27891 0 7.90898 0C5.04883 0 3.1793 1.73359 3.1793 4.87187L3.1793 7.63047L0 7.63047L0 11.25L3.1793 11.25L3.1793 20L7.09219 20L7.09219 11.25L10.0098 11.25Z" fill-rule="nonzero" transform="matrix(1 0 0 1 4.64414 0)" fill="rgb(204, 204, 204)"/>
		</g>
	</g>
</svg>
