<?xml version="1.0" encoding="utf-8" ?>
<svg xmlns="http://www.w3.org/2000/svg" xmlns:xlink="http://www.w3.org/1999/xlink" width="48" height="48" viewBox="0 0 48 48">
	<defs>
		<clipPath id="clipPath8490051205">
			<path d="M0 0L48 0L48 48L0 48L0 0Z" fill-rule="nonzero" transform="matrix(1 0 0 1 0 0)"/>
		</clipPath>
	</defs>
	<g clip-path="url(#clipPath8490051205)">
		<defs>
			<clipPath id="clipPath0208961941">
				<path d="M0 0L48 0L48 48L0 48L0 0Z" fill-rule="nonzero" transform="matrix(1 0 0 1 -0 -0)"/>
			</clipPath>
		</defs>
		<g clip-path="url(#clipPath0208961941)">
			<path d="M43.7902 15.5045C41.8018 6.5148 38.8093 1.71667 34.3702 0.406046C33.9037 0.269194 33.4297 0.166761 32.9482 0.0987475C32.4668 0.0307348 31.983 -0.00214481 31.4968 0.000108719C30.2115 0.000108719 29.0921 0.313233 27.908 0.645108C26.4812 1.04542 24.8602 1.50011 22.4968 1.50011C20.1333 1.50011 18.5115 1.04636 17.0818 0.646046C15.8968 0.313233 14.7783 0.000108719 13.4968 0.000108719C12.994 -0.0016346 12.4935 0.0314066 11.9954 0.0992324C11.4972 0.167058 11.0061 0.269017 10.5221 0.405109C6.10646 1.71011 3.11584 6.50636 1.09834 15.4989C-1.07104 25.1757 -0.00322533 31.2854 4.09271 32.7029C4.37344 32.8019 4.66045 32.8767 4.95377 32.9273C5.24708 32.978 5.54256 33.0038 5.84021 33.0048C8.64615 33.0048 10.8961 30.6676 12.4336 28.7542C14.1708 26.5885 16.2043 25.4898 22.4968 25.4898C28.1171 25.4898 30.443 26.252 32.4521 28.7542C33.7149 30.3273 34.9083 31.4279 36.099 32.1207C37.6824 33.0414 39.2649 33.2457 40.8015 32.7179C43.2221 31.892 44.6096 29.7085 44.9265 26.2267C45.1674 23.5567 44.7962 20.0495 43.7902 15.5045ZM17.9968 15.0001L14.9968 15.0001L14.9968 18.0001C14.9968 18.4143 14.8503 18.7679 14.5574 19.0608C14.2645 19.3537 13.911 19.5001 13.4968 19.5001C13.0826 19.5001 12.729 19.3537 12.4361 19.0608C12.1432 18.7679 11.9968 18.4143 11.9968 18.0001L11.9968 15.0001L8.99677 15.0001C8.58256 15.0001 8.22901 14.8537 7.93611 14.5608C7.64322 14.2679 7.49677 13.9143 7.49677 13.5001C7.49677 13.0859 7.64322 12.7323 7.93611 12.4394C8.22901 12.1466 8.58256 12.0001 8.99677 12.0001L11.9968 12.0001L11.9968 9.00011C11.9968 8.58589 12.1432 8.23234 12.4361 7.93945C12.729 7.64655 13.0826 7.50011 13.4968 7.50011C13.911 7.50011 14.2645 7.64655 14.5574 7.93945C14.8503 8.23234 14.9968 8.58589 14.9968 9.00011L14.9968 12.0001L17.9968 12.0001C18.411 12.0001 18.7645 12.1466 19.0574 12.4394C19.3503 12.7323 19.4968 13.0859 19.4968 13.5001C19.4968 13.9143 19.3503 14.2679 19.0574 14.5608C18.7645 14.8537 18.411 15.0001 17.9968 15.0001ZM25.8718 15.3751C25.354 15.3751 24.9121 15.192 24.5459 14.8259C24.1798 14.4598 23.9968 14.0179 23.9968 13.5001C23.9968 12.9823 24.1798 12.5404 24.5459 12.1743C24.9121 11.8082 25.354 11.6251 25.8718 11.6251C26.3895 11.6251 26.8315 11.8082 27.1976 12.1743C27.5637 12.5404 27.7468 12.9823 27.7468 13.5001C27.7468 14.0179 27.5637 14.4598 27.1976 14.8259C26.8315 15.192 26.3895 15.3751 25.8718 15.3751ZM29.9968 19.5001C29.4787 19.5001 29.0366 19.3169 28.6704 18.9504C28.3042 18.5839 28.1214 18.1416 28.1218 17.6235C28.1222 17.1055 28.3058 16.6635 28.6726 16.2976C29.0394 15.9318 29.4818 15.7492 29.9999 15.7501C30.518 15.751 30.9598 15.935 31.3254 16.302C31.6909 16.6691 31.8731 17.1117 31.8718 17.6298C31.8705 18.1466 31.6869 18.5876 31.321 18.9526C30.955 19.3176 30.5136 19.5001 29.9968 19.5001ZM29.9968 11.2501C29.479 11.2501 29.0371 11.067 28.6709 10.7009C28.3048 10.3348 28.1218 9.89287 28.1218 9.37511C28.1218 8.85734 28.3048 8.4154 28.6709 8.04928C29.0371 7.68317 29.479 7.50011 29.9968 7.50011C30.5145 7.50011 30.9565 7.68317 31.3226 8.04928C31.6887 8.4154 31.8718 8.85734 31.8718 9.37511C31.8718 9.89287 31.6887 10.3348 31.3226 10.7009C30.9565 11.067 30.5145 11.2501 29.9968 11.2501ZM34.1218 15.3751C33.604 15.3751 33.1621 15.192 32.7959 14.8259C32.4298 14.4598 32.2468 14.0179 32.2468 13.5001C32.2468 12.9823 32.4298 12.5404 32.7959 12.1743C33.1621 11.8082 33.604 11.6251 34.1218 11.6251C34.6395 11.6251 35.0815 11.8082 35.4476 12.1743C35.8137 12.5404 35.9968 12.9823 35.9968 13.5001C35.9968 14.0179 35.8137 14.4598 35.4476 14.8259C35.0815 15.192 34.6395 15.3751 34.1218 15.3751Z" fill-rule="nonzero" transform="matrix(1 0 0 1 1.50323 7.49989)" fill="rgb(0, 240, 255)"/>
		</g>
	</g>
</svg>
