<?xml version="1.0" encoding="utf-8" ?>
<svg xmlns="http://www.w3.org/2000/svg" xmlns:xlink="http://www.w3.org/1999/xlink" width="48" height="48" viewBox="0 0 48 48">
	<defs>
		<clipPath id="clipPath3815926235">
			<path d="M0 0L48 0L48 48L0 48L0 0Z" fill-rule="nonzero" transform="matrix(1 0 0 1 0 0)"/>
		</clipPath>
	</defs>
	<g clip-path="url(#clipPath3815926235)">
		<defs>
			<clipPath id="clipPath7402076097">
				<path d="M0 0L48 0L48 48L0 48L0 0Z" fill-rule="nonzero" transform="matrix(1 0 0 1 -0 -0)"/>
			</clipPath>
		</defs>
		<g clip-path="url(#clipPath7402076097)">
			<path d="M38.3658 6.54291C34.063 2.26578 28.8784 0.0856265 22.812 0.00244725C16.7457 -0.080732 11.5032 1.95645 7.0848 6.114C2.66635 10.2716 0.314258 15.3804 0.0285242 21.4407C-0.25721 27.5009 1.60376 32.8084 5.61142 37.3632L5.6283 37.382C5.65923 37.4148 5.6883 37.4485 5.72205 37.4804C5.79142 37.5592 5.87017 37.6482 5.96298 37.741C6.73229 38.5587 7.67828 38.9637 8.80095 38.9559C9.92362 38.948 10.8639 38.53 11.6217 37.7017C14.5395 34.5306 18.1529 32.9451 22.462 32.9451C26.7712 32.9451 30.3846 34.5306 33.3024 37.7017C34.0664 38.5349 35.0136 38.9521 36.1441 38.9532C37.2746 38.9543 38.2226 38.539 38.9883 37.7073L39.2892 37.3792L39.3061 37.3604C43.2493 32.9077 45.1305 27.7089 44.9497 21.7639C44.7689 15.8189 42.5752 10.744 38.3686 6.53916L38.3658 6.54291ZM20.9564 7.45698C20.9564 7.04276 21.1029 6.68921 21.3958 6.39632C21.6887 6.10342 22.0422 5.95698 22.4564 5.95698C22.8706 5.95698 23.2242 6.10342 23.5171 6.39632C23.81 6.68921 23.9564 7.04276 23.9564 7.45698L23.9564 10.457C23.9564 10.8712 23.81 11.2247 23.5171 11.5176C23.2242 11.8105 22.8706 11.957 22.4564 11.957C22.0422 11.957 21.6887 11.8105 21.3958 11.5176C21.1029 11.2247 20.9564 10.8712 20.9564 10.457L20.9564 7.45698ZM10.4564 23.957L7.45642 23.957C7.04221 23.957 6.68865 23.8105 6.39576 23.5176C6.10287 23.2247 5.95642 22.8712 5.95642 22.457C5.95642 22.0428 6.10287 21.6892 6.39576 21.3963C6.68865 21.1034 7.04221 20.957 7.45642 20.957L10.4564 20.957C10.8706 20.957 11.2242 21.1034 11.5171 21.3963C11.81 21.6892 11.9564 22.0428 11.9564 22.457C11.9564 22.8712 11.81 23.2247 11.5171 23.5176C11.2242 23.8105 10.8706 23.957 10.4564 23.957ZM15.0314 15.032C14.7386 15.3246 14.3851 15.471 13.9711 15.471C13.5571 15.471 13.2037 15.3246 12.9108 15.032L10.7892 12.9114C10.4963 12.6184 10.3498 12.2648 10.3498 11.8506C10.3498 11.4363 10.4963 11.0827 10.7892 10.7898C11.0822 10.4969 11.4358 10.3504 11.85 10.3504C12.2643 10.3504 12.6179 10.4969 12.9108 10.7898L15.0314 12.9114C15.3241 13.2042 15.4704 13.5576 15.4704 13.9717C15.4704 14.3857 15.3241 14.7391 15.0314 15.032ZM29.0283 17.1976L24.5752 24.2757C24.4841 24.402 24.3835 24.5201 24.2734 24.6302C24.1633 24.7403 24.0452 24.8409 23.9189 24.932C23.2846 25.3745 22.5864 25.53 21.8243 25.3986C21.0622 25.2672 20.4564 24.8869 20.0068 24.2576C19.5573 23.6283 19.394 22.9318 19.5169 22.1683C19.6398 21.4047 20.0134 20.7947 20.6377 20.3382L27.7158 15.8851C27.8806 15.7702 28.0634 15.7128 28.2642 15.7128C28.4651 15.7128 28.6479 15.7702 28.8127 15.8851C29.023 16.037 29.1492 16.2409 29.1912 16.4969C29.2333 16.7529 29.179 16.9864 29.0283 17.1976ZM32.002 15.032C31.7072 15.3121 31.3564 15.4496 30.9497 15.4444C30.543 15.4392 30.1958 15.2928 29.9082 15.0052C29.6206 14.7176 29.4742 14.3704 29.469 13.9637C29.4638 13.557 29.6013 13.2062 29.8814 12.9114L32.002 10.7898C32.295 10.4972 32.6485 10.3511 33.0626 10.3512C33.4766 10.3514 33.83 10.4978 34.1228 10.7906C34.4156 11.0834 34.562 11.4368 34.5622 11.8508C34.5623 12.2648 34.4161 12.6184 34.1236 12.9114L32.002 15.032ZM37.4564 23.957L34.4564 23.957C34.0422 23.957 33.6886 23.8105 33.3958 23.5176C33.1029 23.2247 32.9564 22.8712 32.9564 22.457C32.9564 22.0428 33.1029 21.6892 33.3958 21.3963C33.6886 21.1034 34.0422 20.957 34.4564 20.957L37.4564 20.957C37.8706 20.957 38.2242 21.1034 38.5171 21.3963C38.81 21.6892 38.9564 22.0428 38.9564 22.457C38.9564 22.8712 38.81 23.2247 38.5171 23.5176C38.2242 23.8105 37.8706 23.957 37.4564 23.957Z" fill-rule="nonzero" transform="matrix(1 0 0 1 1.54358 4.54302)" fill="rgb(0, 240, 255)"/>
		</g>
	</g>
</svg>
